<svg width="261" height="70" viewBox="0 0 261 70" fill="none" xmlns="http://www.w3.org/2000/svg">
<path fill-rule="evenodd" clip-rule="evenodd" d="M124.324 50.9886C123.104 51.2946 121.511 51.6141 119.554 51.9471C117.391 52.2981 115.204 52.4646 113.015 52.4511C111.125 52.5028 109.244 52.1856 107.48 51.5128C106.09 50.9616 104.859 50.0683 103.905 48.9163C102.982 47.7418 102.328 46.3783 101.988 44.9226C101.583 43.2575 101.387 41.5521 101.401 39.8376V24.569H107.764V38.8386C107.595 41.0075 108.047 43.1811 109.069 45.1003C110.149 46.4503 111.841 47.159 113.56 46.9768H115.999C116.644 46.9363 117.286 46.8485 117.918 46.7136V24.5893H124.324V50.9908V50.9886ZM142.497 32.9233L148.295 24.5871H154.962L145.723 37.6798C147.656 40.0783 149.501 42.5083 151.258 44.9653C152.867 47.1703 154.323 49.4811 155.617 51.8818H148.754C148.383 51.1303 147.967 50.4013 147.51 49.6993L145.897 47.4111C145.316 46.5808 144.713 45.7596 144.09 44.9451C143.464 44.1306 142.852 43.3656 142.258 42.6546C140.965 44.1486 139.759 45.7146 138.64 47.3436C137.479 49.0018 136.512 50.48 135.742 51.7738H129.206C129.78 50.6398 130.421 49.5396 131.123 48.4798C131.879 47.3143 132.691 46.1308 133.564 44.9248C134.435 43.7143 135.328 42.5083 136.242 41.3023C137.16 40.0941 138.067 38.9443 138.969 37.8531L129.64 24.5443H136.638L142.497 32.9233ZM171.765 11.4111C173.068 11.3931 174.368 11.5236 175.642 11.8026C176.497 11.9848 177.343 12.2188 178.171 12.5001L176.951 17.7156C176.254 17.4073 175.52 17.1823 174.771 17.0406C173.945 16.892 173.106 16.8336 172.264 16.8651C171.387 16.8381 170.514 16.9866 169.693 17.3016C169.04 17.5626 168.464 17.9833 168.016 18.5233C167.578 19.0791 167.274 19.7293 167.123 20.4201C166.943 21.2143 166.853 22.0288 166.86 22.8433V24.6546H172.264V29.9128H166.925V51.7738H160.562V22.6453C160.391 19.6393 161.39 16.6828 163.352 14.3991C165.602 12.2458 168.662 11.1591 171.765 11.4111ZM201.051 38.1815C201.078 40.184 200.763 42.1776 200.115 44.0721C199.537 45.7506 198.625 47.2941 197.433 48.6103C196.263 49.8703 194.836 50.8693 193.25 51.5353C191.545 52.2441 189.713 52.6018 187.868 52.5816C186.028 52.6041 184.203 52.2463 182.506 51.5331C180.936 50.8625 179.525 49.868 178.366 48.6081C177.174 47.2918 176.254 45.7506 175.666 44.0721C174.991 42.1821 174.661 40.1863 174.683 38.1815C174.661 36.1813 174.991 34.1946 175.664 32.3113C176.249 30.6306 177.167 29.087 178.366 27.7731C179.541 26.5198 180.965 25.5321 182.551 24.8706C184.237 24.1775 186.043 23.8288 187.868 23.8468C189.697 23.8311 191.513 24.1798 193.207 24.8728C194.787 25.5253 196.209 26.5153 197.37 27.7753C198.558 29.0848 199.478 30.6193 200.07 32.2911C200.745 34.1721 201.076 36.161 201.051 38.159V38.1815ZM194.515 38.159C194.636 35.8798 194.017 33.6208 192.748 31.7241C191.558 30.2233 189.749 29.348 187.834 29.348C185.922 29.348 184.111 30.2233 182.92 31.7218C181.654 33.6208 181.033 35.8798 181.156 38.159C181.024 40.4743 181.642 42.7716 182.92 44.7066C184.102 46.2208 185.913 47.1073 187.834 47.1073C189.756 47.1073 191.569 46.2208 192.748 44.7043C194.024 42.7693 194.645 40.4743 194.515 38.159ZM228.622 16.6041C228.67 17.6661 228.249 18.6966 227.466 19.4166C226.723 20.1028 225.751 20.4763 224.743 20.465C223.713 20.4875 222.714 20.1118 221.953 19.4166C221.155 18.7033 220.716 17.6728 220.754 16.6041C220.698 15.5241 221.121 14.4801 221.911 13.7466C222.671 13.0513 223.67 12.6778 224.701 12.6981C225.706 12.6868 226.681 13.0626 227.423 13.7443C228.224 14.4733 228.663 15.5196 228.622 16.6018V16.6041ZM221.582 51.7716H227.945V24.5893H221.582V51.7761V51.7716ZM260.62 38.1815C260.647 40.184 260.327 42.1776 259.681 44.0721C259.105 45.7506 258.192 47.2941 257.002 48.6103C255.832 49.8703 254.403 50.8693 252.817 51.5353C251.113 52.2441 249.282 52.6018 247.435 52.5816C245.594 52.6041 243.769 52.2463 242.073 51.5331C240.502 50.8625 239.092 49.868 237.933 48.6081C236.74 47.2918 235.82 45.7506 235.233 44.0721C234.56 42.1821 234.229 40.1863 234.252 38.1815C234.227 36.1813 234.558 34.1946 235.231 32.3113C235.816 30.6306 236.734 29.087 237.933 27.7731C239.107 26.5198 240.534 25.5321 242.118 24.8706C243.805 24.1775 245.612 23.8288 247.435 23.8468C249.264 23.8311 251.08 24.1798 252.774 24.8728C254.356 25.5253 255.775 26.5153 256.936 27.7753C258.127 29.0848 259.045 30.6193 259.636 32.2911C260.311 34.1721 260.642 36.161 260.617 38.159L260.62 38.1815ZM254.081 38.159C254.203 35.8798 253.584 33.6208 252.315 31.7241C251.125 30.2233 249.316 29.348 247.401 29.348C245.488 29.348 243.679 30.2233 242.489 31.7218C241.22 33.6208 240.599 35.8798 240.723 38.159C240.59 40.4743 241.211 42.7716 242.489 44.7066C243.668 46.2208 245.482 47.1073 247.401 47.1073C249.322 47.1073 251.136 46.2208 252.315 44.7043C253.593 42.7693 254.212 40.4743 254.081 38.159ZM207.261 51.7738H213.669V13.5261H207.261V51.7738Z" fill="#1D1D1D"/>
<path d="M87.7365 28.1679L75.8611 24.2619L0.112549 0.0878906L47.0093 69.9054L88.4115 29.0611L87.7365 28.1679ZM52.4116 57.1411V57.0331L47.6415 61.6794L43.6973 55.5279L12.861 9.57839L79.1933 30.7644L52.4138 57.1411H52.4116Z" fill="url(#paint0_linear_624_817)"/>
<path d="M62.2844 0L58.0566 15.2505L63.2856 16.9312L64.8989 11.0835L77.2109 24.6982L75.8611 24.2619L87.7364 28.188L62.2844 0Z" fill="url(#paint1_linear_624_817)"/>
<path d="M54.8526 26.7275L46.2463 59.258L43.7623 55.5478L47.7493 61.679L52.5216 57.0328L60.0613 28.406L54.8526 26.7275Z" fill="url(#paint2_linear_624_817)"/>
<defs>
<linearGradient id="paint0_linear_624_817" x1="5.83332" y1="13.4002" x2="61.0095" y2="133.853" gradientUnits="userSpaceOnUse">
<stop stop-color="#04B7CB"/>
<stop offset="0.03" stop-color="#04B7CC"/>
<stop offset="0.17" stop-color="#04B7D6"/>
<stop offset="0.41" stop-color="#04B7F2"/>
<stop offset="0.51" stop-color="#04B7FF"/>
<stop offset="0.78" stop-color="#0495EC"/>
<stop offset="0.99" stop-color="#0476DB"/>
</linearGradient>
<linearGradient id="paint1_linear_624_817" x1="171.491" y1="13.6239" x2="152.41" y2="260.612" gradientUnits="userSpaceOnUse">
<stop stop-color="#04B7CB"/>
<stop offset="0.14" stop-color="#04B7D4"/>
<stop offset="0.38" stop-color="#04B7EE"/>
<stop offset="0.51" stop-color="#04B7FF"/>
<stop offset="0.78" stop-color="#0495EC"/>
<stop offset="0.99" stop-color="#0476DB"/>
</linearGradient>
<linearGradient id="paint2_linear_624_817" x1="53.452" y1="16.2334" x2="42.0676" y2="58.2331" gradientUnits="userSpaceOnUse">
<stop stop-color="#04B7CB"/>
<stop offset="0.17" stop-color="#0DBACF"/>
<stop offset="0.45" stop-color="#27C1DA"/>
<stop offset="0.81" stop-color="#50CDEC"/>
<stop offset="1" stop-color="#68D4F7"/>
</linearGradient>
</defs>
</svg>
